<?xml version="1.0" encoding="UTF-8"?>
<!-- Generator: Adobe Illustrator 25.2.0, SVG Export Plug-In . SVG Version: 6.00 Build 0)  -->
<svg xmlns="http://www.w3.org/2000/svg" xmlns:xlink="http://www.w3.org/1999/xlink" version="1.1" id="Layer_1" x="0px" y="0px" viewBox="0 0 82 83" style="enable-background:new 0 0 82 83;" xml:space="preserve">
<style type="text/css">
	.st0{fill:#8D8D8D;}
	.st1{fill:#D9D9D9;}
	.st2{fill:#083F88;}
</style>
<g>
	<path class="st0" d="M41,72.2c-17,0-30.9-13.9-30.9-30.9c0-17,13.9-30.9,30.9-30.9c17,0,30.9,13.9,30.9,30.9   C71.9,58.4,58,72.2,41,72.2z M41,11.4c-16.5,0-29.9,13.4-29.9,29.9c0,16.5,13.4,29.9,29.9,29.9s29.9-13.4,29.9-29.9   C70.9,24.9,57.5,11.4,41,11.4z"></path>
</g>
<g>
	<path class="st1" d="M41,82.3c-22.6,0-41-18.4-41-41s18.4-41,41-41s41,18.4,41,41S63.6,82.3,41,82.3z M41,1.3   c-22.1,0-40,17.9-40,40c0,22.1,17.9,40,40,40c22.1,0,40-17.9,40-40C81,19.3,63.1,1.3,41,1.3z"></path>
</g>
<g>
	<path class="st2" d="M24.6,52.3l-2-2L36.1,37l7.7,7.7l11-11h-5.8v-2.8h10.4v10.4h-2.7v-5.6l-13,13L36,41L24.6,52.3z"></path>
</g>
</svg>
